<mxfile host="app.diagrams.net" agent="Mozilla/5.0 (Windows NT 10.0; Win64; x64) AppleWebKit/537.36 (KHTML, like Gecko) Chrome/138.0.0.0 Safari/537.36" version="28.0.6">
  <diagram id="prtHgNgQTEPvFCAcTncT" name="Page-1">
    <mxGraphModel dx="1665" dy="777" grid="1" gridSize="10" guides="1" tooltips="1" connect="1" arrows="1" fold="1" page="1" pageScale="1" pageWidth="827" pageHeight="1169" math="0" shadow="0">
      <root>
        <mxCell id="0" />
        <mxCell id="1" parent="0" />
        <mxCell id="M_WRL_CMk0pQ6tHYHCW3-53" value="" style="image;aspect=fixed;perimeter=ellipsePerimeter;html=1;align=center;shadow=0;dashed=0;spacingTop=3;image=img/lib/active_directory/database.svg;" vertex="1" parent="1">
          <mxGeometry x="110" y="920" width="50" height="37" as="geometry" />
        </mxCell>
        <mxCell id="M_WRL_CMk0pQ6tHYHCW3-52" value="" style="image;aspect=fixed;perimeter=ellipsePerimeter;html=1;align=center;shadow=0;dashed=0;spacingTop=3;image=img/lib/active_directory/database.svg;" vertex="1" parent="1">
          <mxGeometry x="110" y="910.75" width="50" height="37" as="geometry" />
        </mxCell>
        <mxCell id="M_WRL_CMk0pQ6tHYHCW3-5" value="" style="edgeStyle=orthogonalEdgeStyle;rounded=0;orthogonalLoop=1;jettySize=auto;html=1;" edge="1" parent="1" source="M_WRL_CMk0pQ6tHYHCW3-3" target="M_WRL_CMk0pQ6tHYHCW3-4">
          <mxGeometry relative="1" as="geometry" />
        </mxCell>
        <mxCell id="M_WRL_CMk0pQ6tHYHCW3-3" value="High Dimensional data&lt;div&gt;(Doc,PDF,Images)&lt;/div&gt;" style="rounded=0;whiteSpace=wrap;html=1;" vertex="1" parent="1">
          <mxGeometry x="99" y="120" width="160" height="40" as="geometry" />
        </mxCell>
        <mxCell id="M_WRL_CMk0pQ6tHYHCW3-7" value="" style="edgeStyle=orthogonalEdgeStyle;rounded=0;orthogonalLoop=1;jettySize=auto;html=1;" edge="1" parent="1" source="M_WRL_CMk0pQ6tHYHCW3-4" target="M_WRL_CMk0pQ6tHYHCW3-6">
          <mxGeometry relative="1" as="geometry" />
        </mxCell>
        <mxCell id="M_WRL_CMk0pQ6tHYHCW3-4" value="High Dimensional Vector&lt;div&gt;0.34,-0.23,0.99,-0.37&lt;/div&gt;" style="rounded=0;whiteSpace=wrap;html=1;" vertex="1" parent="1">
          <mxGeometry x="336" y="120" width="160" height="40" as="geometry" />
        </mxCell>
        <mxCell id="M_WRL_CMk0pQ6tHYHCW3-6" value="Vector database" style="rounded=0;whiteSpace=wrap;html=1;" vertex="1" parent="1">
          <mxGeometry x="579" y="120" width="160" height="40" as="geometry" />
        </mxCell>
        <mxCell id="M_WRL_CMk0pQ6tHYHCW3-8" value="Vector Database" style="text;html=1;align=center;verticalAlign=middle;whiteSpace=wrap;rounded=0;fontStyle=1" vertex="1" parent="1">
          <mxGeometry x="349" y="50" width="130" height="30" as="geometry" />
        </mxCell>
        <mxCell id="M_WRL_CMk0pQ6tHYHCW3-9" value="Vector database is a database used for storing&lt;b&gt; high dimensional vectors&lt;/b&gt; such as word embedding or image embeddings." style="text;html=1;align=center;verticalAlign=middle;whiteSpace=wrap;rounded=0;" vertex="1" parent="1">
          <mxGeometry x="81" y="174" width="680" height="40" as="geometry" />
        </mxCell>
        <mxCell id="M_WRL_CMk0pQ6tHYHCW3-11" value="&lt;h1 style=&quot;margin-top: 0px;&quot;&gt;Why we need Vector DB?&lt;/h1&gt;&lt;p&gt;Over 80-85% data out there is unstructured data.&lt;/p&gt;&lt;p&gt;we cant store them in Relational/Traditional database&lt;/p&gt;&lt;p&gt;Vector gives better efficient result than SQL/NoSQL databases.&lt;/p&gt;&lt;p&gt;&lt;br&gt;&lt;/p&gt;" style="text;html=1;whiteSpace=wrap;overflow=hidden;rounded=0;" vertex="1" parent="1">
          <mxGeometry x="79" y="240" width="681" height="150" as="geometry" />
        </mxCell>
        <mxCell id="M_WRL_CMk0pQ6tHYHCW3-13" value="&lt;h1 style=&quot;margin-top: 0px;&quot;&gt;Vector Embedding&lt;/h1&gt;&lt;p&gt;&lt;br&gt;&lt;/p&gt;&lt;p&gt;&lt;br&gt;&lt;/p&gt;" style="text;html=1;whiteSpace=wrap;overflow=hidden;rounded=0;" vertex="1" parent="1">
          <mxGeometry x="81" y="390" width="681" height="50" as="geometry" />
        </mxCell>
        <mxCell id="M_WRL_CMk0pQ6tHYHCW3-22" value="" style="edgeStyle=orthogonalEdgeStyle;rounded=0;orthogonalLoop=1;jettySize=auto;html=1;" edge="1" parent="1" source="M_WRL_CMk0pQ6tHYHCW3-16" target="M_WRL_CMk0pQ6tHYHCW3-19">
          <mxGeometry relative="1" as="geometry" />
        </mxCell>
        <mxCell id="M_WRL_CMk0pQ6tHYHCW3-16" value="" style="sketch=0;outlineConnect=0;fontColor=#232F3E;gradientColor=none;fillColor=#ED7100;strokeColor=none;dashed=0;verticalLabelPosition=bottom;verticalAlign=top;align=center;html=1;fontSize=12;fontStyle=0;aspect=fixed;pointerEvents=1;shape=mxgraph.aws4.container_registry_image;" vertex="1" parent="1">
          <mxGeometry x="110" y="452" width="48" height="48" as="geometry" />
        </mxCell>
        <mxCell id="M_WRL_CMk0pQ6tHYHCW3-23" value="" style="edgeStyle=orthogonalEdgeStyle;rounded=0;orthogonalLoop=1;jettySize=auto;html=1;" edge="1" parent="1" source="M_WRL_CMk0pQ6tHYHCW3-17" target="M_WRL_CMk0pQ6tHYHCW3-20">
          <mxGeometry relative="1" as="geometry" />
        </mxCell>
        <mxCell id="M_WRL_CMk0pQ6tHYHCW3-17" value="Text" style="text;html=1;align=center;verticalAlign=middle;whiteSpace=wrap;rounded=0;" vertex="1" parent="1">
          <mxGeometry x="104" y="530" width="60" height="30" as="geometry" />
        </mxCell>
        <mxCell id="M_WRL_CMk0pQ6tHYHCW3-24" value="" style="edgeStyle=orthogonalEdgeStyle;rounded=0;orthogonalLoop=1;jettySize=auto;html=1;" edge="1" parent="1" source="M_WRL_CMk0pQ6tHYHCW3-18" target="M_WRL_CMk0pQ6tHYHCW3-21">
          <mxGeometry relative="1" as="geometry" />
        </mxCell>
        <mxCell id="M_WRL_CMk0pQ6tHYHCW3-18" value="Audio" style="html=1;whiteSpace=wrap;strokeColor=none;fillColor=#0079D6;labelPosition=center;verticalLabelPosition=middle;verticalAlign=top;align=center;fontSize=12;outlineConnect=0;spacingTop=-6;fontColor=#FFFFFF;sketch=0;shape=mxgraph.sitemap.audio;" vertex="1" parent="1">
          <mxGeometry x="87" y="585" width="71" height="50" as="geometry" />
        </mxCell>
        <mxCell id="M_WRL_CMk0pQ6tHYHCW3-30" value="" style="edgeStyle=orthogonalEdgeStyle;rounded=0;orthogonalLoop=1;jettySize=auto;html=1;" edge="1" parent="1" source="M_WRL_CMk0pQ6tHYHCW3-19" target="M_WRL_CMk0pQ6tHYHCW3-27">
          <mxGeometry relative="1" as="geometry" />
        </mxCell>
        <mxCell id="M_WRL_CMk0pQ6tHYHCW3-19" value="" style="image;sketch=0;aspect=fixed;html=1;points=[];align=center;fontSize=12;image=img/lib/mscae/Resource_Graph_Explorer.svg;" vertex="1" parent="1">
          <mxGeometry x="240" y="459" width="33.32" height="34" as="geometry" />
        </mxCell>
        <mxCell id="M_WRL_CMk0pQ6tHYHCW3-31" value="" style="edgeStyle=orthogonalEdgeStyle;rounded=0;orthogonalLoop=1;jettySize=auto;html=1;" edge="1" parent="1" source="M_WRL_CMk0pQ6tHYHCW3-20" target="M_WRL_CMk0pQ6tHYHCW3-28">
          <mxGeometry relative="1" as="geometry" />
        </mxCell>
        <mxCell id="M_WRL_CMk0pQ6tHYHCW3-20" value="" style="image;sketch=0;aspect=fixed;html=1;points=[];align=center;fontSize=12;image=img/lib/mscae/Resource_Graph_Explorer.svg;" vertex="1" parent="1">
          <mxGeometry x="240" y="528" width="33.32" height="34" as="geometry" />
        </mxCell>
        <mxCell id="M_WRL_CMk0pQ6tHYHCW3-32" value="" style="edgeStyle=orthogonalEdgeStyle;rounded=0;orthogonalLoop=1;jettySize=auto;html=1;" edge="1" parent="1" source="M_WRL_CMk0pQ6tHYHCW3-21" target="M_WRL_CMk0pQ6tHYHCW3-29">
          <mxGeometry relative="1" as="geometry" />
        </mxCell>
        <mxCell id="M_WRL_CMk0pQ6tHYHCW3-21" value="" style="image;sketch=0;aspect=fixed;html=1;points=[];align=center;fontSize=12;image=img/lib/mscae/Resource_Graph_Explorer.svg;" vertex="1" parent="1">
          <mxGeometry x="240" y="593" width="33.32" height="34" as="geometry" />
        </mxCell>
        <mxCell id="M_WRL_CMk0pQ6tHYHCW3-27" value="[1,3,0,6,1,2,-1,3,...]" style="rounded=0;whiteSpace=wrap;html=1;" vertex="1" parent="1">
          <mxGeometry x="330" y="465.5" width="120" height="21" as="geometry" />
        </mxCell>
        <mxCell id="M_WRL_CMk0pQ6tHYHCW3-28" value="[7,3,0,6,1,2,-1,3,...]" style="rounded=0;whiteSpace=wrap;html=1;" vertex="1" parent="1">
          <mxGeometry x="330" y="534" width="120" height="21" as="geometry" />
        </mxCell>
        <mxCell id="M_WRL_CMk0pQ6tHYHCW3-29" value="[5,-9,0,6,2,1,0,6,...]" style="rounded=0;whiteSpace=wrap;html=1;" vertex="1" parent="1">
          <mxGeometry x="330" y="599" width="120" height="21" as="geometry" />
        </mxCell>
        <mxCell id="M_WRL_CMk0pQ6tHYHCW3-46" style="edgeStyle=orthogonalEdgeStyle;rounded=0;orthogonalLoop=1;jettySize=auto;html=1;entryX=0;entryY=0.5;entryDx=0;entryDy=0;" edge="1" parent="1" source="M_WRL_CMk0pQ6tHYHCW3-33" target="M_WRL_CMk0pQ6tHYHCW3-43">
          <mxGeometry relative="1" as="geometry" />
        </mxCell>
        <mxCell id="M_WRL_CMk0pQ6tHYHCW3-47" style="edgeStyle=orthogonalEdgeStyle;rounded=0;orthogonalLoop=1;jettySize=auto;html=1;entryX=0;entryY=0.5;entryDx=0;entryDy=0;" edge="1" parent="1" source="M_WRL_CMk0pQ6tHYHCW3-33" target="M_WRL_CMk0pQ6tHYHCW3-44">
          <mxGeometry relative="1" as="geometry" />
        </mxCell>
        <mxCell id="M_WRL_CMk0pQ6tHYHCW3-48" style="edgeStyle=orthogonalEdgeStyle;rounded=0;orthogonalLoop=1;jettySize=auto;html=1;entryX=0;entryY=0.75;entryDx=0;entryDy=0;" edge="1" parent="1" source="M_WRL_CMk0pQ6tHYHCW3-33" target="M_WRL_CMk0pQ6tHYHCW3-45">
          <mxGeometry relative="1" as="geometry" />
        </mxCell>
        <mxCell id="M_WRL_CMk0pQ6tHYHCW3-33" value="Embedding Model" style="rounded=1;whiteSpace=wrap;html=1;" vertex="1" parent="1">
          <mxGeometry x="320" y="760" width="170" height="40" as="geometry" />
        </mxCell>
        <mxCell id="M_WRL_CMk0pQ6tHYHCW3-37" style="edgeStyle=orthogonalEdgeStyle;rounded=0;orthogonalLoop=1;jettySize=auto;html=1;entryX=0;entryY=0.25;entryDx=0;entryDy=0;" edge="1" parent="1" source="M_WRL_CMk0pQ6tHYHCW3-34" target="M_WRL_CMk0pQ6tHYHCW3-33">
          <mxGeometry relative="1" as="geometry" />
        </mxCell>
        <mxCell id="M_WRL_CMk0pQ6tHYHCW3-34" value="Object 1" style="text;html=1;align=center;verticalAlign=middle;whiteSpace=wrap;rounded=0;" vertex="1" parent="1">
          <mxGeometry x="120" y="720" width="60" height="30" as="geometry" />
        </mxCell>
        <mxCell id="M_WRL_CMk0pQ6tHYHCW3-38" style="edgeStyle=orthogonalEdgeStyle;rounded=0;orthogonalLoop=1;jettySize=auto;html=1;entryX=0;entryY=0.25;entryDx=0;entryDy=0;" edge="1" parent="1" source="M_WRL_CMk0pQ6tHYHCW3-35" target="M_WRL_CMk0pQ6tHYHCW3-33">
          <mxGeometry relative="1" as="geometry" />
        </mxCell>
        <mxCell id="M_WRL_CMk0pQ6tHYHCW3-35" value="Object 2" style="text;html=1;align=center;verticalAlign=middle;whiteSpace=wrap;rounded=0;" vertex="1" parent="1">
          <mxGeometry x="120" y="760" width="60" height="30" as="geometry" />
        </mxCell>
        <mxCell id="M_WRL_CMk0pQ6tHYHCW3-39" style="edgeStyle=orthogonalEdgeStyle;rounded=0;orthogonalLoop=1;jettySize=auto;html=1;entryX=0;entryY=0.5;entryDx=0;entryDy=0;" edge="1" parent="1" source="M_WRL_CMk0pQ6tHYHCW3-36" target="M_WRL_CMk0pQ6tHYHCW3-33">
          <mxGeometry relative="1" as="geometry" />
        </mxCell>
        <mxCell id="M_WRL_CMk0pQ6tHYHCW3-36" value="Object 3" style="text;html=1;align=center;verticalAlign=middle;whiteSpace=wrap;rounded=0;" vertex="1" parent="1">
          <mxGeometry x="120" y="800" width="60" height="30" as="geometry" />
        </mxCell>
        <mxCell id="M_WRL_CMk0pQ6tHYHCW3-43" value="[1,3,0,6,1,2,-1,3,...]" style="rounded=0;whiteSpace=wrap;html=1;" vertex="1" parent="1">
          <mxGeometry x="557" y="700" width="120" height="21" as="geometry" />
        </mxCell>
        <mxCell id="M_WRL_CMk0pQ6tHYHCW3-44" value="[7,3,0,6,1,2,-1,3,...]" style="rounded=0;whiteSpace=wrap;html=1;" vertex="1" parent="1">
          <mxGeometry x="557" y="768.5" width="120" height="21" as="geometry" />
        </mxCell>
        <mxCell id="M_WRL_CMk0pQ6tHYHCW3-45" value="[5,-9,0,6,2,1,0,6,...]" style="rounded=0;whiteSpace=wrap;html=1;" vertex="1" parent="1">
          <mxGeometry x="557" y="833.5" width="120" height="21" as="geometry" />
        </mxCell>
        <mxCell id="M_WRL_CMk0pQ6tHYHCW3-49" value="" style="image;aspect=fixed;perimeter=ellipsePerimeter;html=1;align=center;shadow=0;dashed=0;spacingTop=3;image=img/lib/active_directory/database.svg;" vertex="1" parent="1">
          <mxGeometry x="110" y="900" width="50" height="37" as="geometry" />
        </mxCell>
        <mxCell id="M_WRL_CMk0pQ6tHYHCW3-51" value="&lt;h1 style=&quot;margin-top: 0px;&quot;&gt;Vector Database&lt;/h1&gt;&lt;p&gt;A vector database &lt;b&gt;indexes and store vector embeddings &lt;/b&gt;for faster retrieval and similarity search.&lt;/p&gt;" style="text;html=1;whiteSpace=wrap;overflow=hidden;rounded=0;" vertex="1" parent="1">
          <mxGeometry x="190" y="878.5" width="370" height="101.5" as="geometry" />
        </mxCell>
        <mxCell id="M_WRL_CMk0pQ6tHYHCW3-54" value="&lt;h1 style=&quot;margin-top: 0px;&quot;&gt;&lt;span style=&quot;background-color: transparent; color: light-dark(rgb(0, 0, 0), rgb(255, 255, 255));&quot;&gt;Use Case&lt;/span&gt;&lt;/h1&gt;&lt;div&gt;&lt;span style=&quot;background-color: transparent; color: light-dark(rgb(0, 0, 0), rgb(255, 255, 255)); font-size: 12px; font-weight: normal;&quot;&gt;Long term memory for LLMs&lt;/span&gt;&lt;/div&gt;&lt;div&gt;&lt;span style=&quot;background-color: transparent; color: light-dark(rgb(0, 0, 0), rgb(255, 255, 255)); font-size: 12px; font-weight: normal;&quot;&gt;Semantic search&lt;/span&gt;&lt;/div&gt;&lt;div&gt;&lt;span style=&quot;background-color: transparent; color: light-dark(rgb(0, 0, 0), rgb(255, 255, 255)); font-size: 12px; font-weight: normal;&quot;&gt;Similarity Search&lt;/span&gt;&lt;/div&gt;&lt;div&gt;&lt;span style=&quot;background-color: transparent; color: light-dark(rgb(0, 0, 0), rgb(255, 255, 255)); font-size: 12px; font-weight: normal;&quot;&gt;Recommndation Engine as well&lt;/span&gt;&lt;/div&gt;&lt;div&gt;&lt;span style=&quot;background-color: transparent; color: light-dark(rgb(0, 0, 0), rgb(255, 255, 255)); font-size: 12px; font-weight: normal;&quot;&gt;&lt;br&gt;&lt;/span&gt;&lt;/div&gt;" style="text;html=1;whiteSpace=wrap;overflow=hidden;rounded=0;" vertex="1" parent="1">
          <mxGeometry x="87" y="1000" width="593" height="120" as="geometry" />
        </mxCell>
      </root>
    </mxGraphModel>
  </diagram>
</mxfile>
